<mxfile host="app.diagrams.net" modified="2021-06-26T23:11:37.691Z" agent="5.0 (Windows NT 10.0; Win64; x64) AppleWebKit/537.36 (KHTML, like Gecko) Chrome/91.0.4472.114 Safari/537.36" etag="DrAz9g9GnvxfdwxLSXWv" version="14.6.13" type="github" pages="3">
  <diagram id="kgpKYQtTHZ0yAKxKKP6v" name="Control">
    <mxGraphModel dx="1432" dy="989" grid="1" gridSize="10" guides="1" tooltips="1" connect="1" arrows="1" fold="1" page="1" pageScale="1" pageWidth="850" pageHeight="1100" math="0" shadow="0">
      <root>
        <mxCell id="0" />
        <mxCell id="1" parent="0" />
        <mxCell id="XKJcPLNsvloLNNbEv6GF-1" value="Control Loop Block Diagram" style="rounded=0;whiteSpace=wrap;html=1;verticalAlign=top;fontSize=16;" parent="1" vertex="1">
          <mxGeometry x="100" y="20" width="650" height="810" as="geometry" />
        </mxCell>
        <mxCell id="FA2n_a_aYbFm5MKbmlmY-5" style="edgeStyle=orthogonalEdgeStyle;rounded=0;orthogonalLoop=1;jettySize=auto;html=1;exitX=0.5;exitY=1;exitDx=0;exitDy=0;entryX=0.5;entryY=0;entryDx=0;entryDy=0;" parent="1" source="FA2n_a_aYbFm5MKbmlmY-1" target="FA2n_a_aYbFm5MKbmlmY-3" edge="1">
          <mxGeometry relative="1" as="geometry" />
        </mxCell>
        <mxCell id="FA2n_a_aYbFm5MKbmlmY-1" value="Soil Moisture Sensor" style="rounded=0;whiteSpace=wrap;html=1;fillColor=#d5e8d4;strokeColor=#82b366;" parent="1" vertex="1">
          <mxGeometry x="305" y="100" width="120" height="60" as="geometry" />
        </mxCell>
        <mxCell id="FA2n_a_aYbFm5MKbmlmY-4" value="Above minimum" style="edgeStyle=orthogonalEdgeStyle;rounded=0;orthogonalLoop=1;jettySize=auto;html=1;exitX=0;exitY=0.5;exitDx=0;exitDy=0;entryX=0;entryY=0.5;entryDx=0;entryDy=0;" parent="1" source="FA2n_a_aYbFm5MKbmlmY-3" target="FA2n_a_aYbFm5MKbmlmY-1" edge="1">
          <mxGeometry relative="1" as="geometry">
            <Array as="points">
              <mxPoint x="270" y="240" />
              <mxPoint x="270" y="130" />
            </Array>
          </mxGeometry>
        </mxCell>
        <mxCell id="FA2n_a_aYbFm5MKbmlmY-8" style="edgeStyle=orthogonalEdgeStyle;rounded=0;orthogonalLoop=1;jettySize=auto;html=1;exitX=0.5;exitY=1;exitDx=0;exitDy=0;entryX=0.5;entryY=0;entryDx=0;entryDy=0;" parent="1" source="FA2n_a_aYbFm5MKbmlmY-3" edge="1">
          <mxGeometry relative="1" as="geometry">
            <mxPoint x="365" y="310" as="targetPoint" />
          </mxGeometry>
        </mxCell>
        <mxCell id="FA2n_a_aYbFm5MKbmlmY-12" style="edgeStyle=orthogonalEdgeStyle;rounded=0;orthogonalLoop=1;jettySize=auto;html=1;exitX=1;exitY=0.5;exitDx=0;exitDy=0;entryX=0.5;entryY=0;entryDx=0;entryDy=0;" parent="1" source="FA2n_a_aYbFm5MKbmlmY-3" target="FA2n_a_aYbFm5MKbmlmY-11" edge="1">
          <mxGeometry relative="1" as="geometry" />
        </mxCell>
        <mxCell id="FA2n_a_aYbFm5MKbmlmY-3" value="Moisture Threshold" style="rounded=1;whiteSpace=wrap;html=1;fillColor=#fff2cc;strokeColor=#d6b656;" parent="1" vertex="1">
          <mxGeometry x="305" y="210" width="120" height="60" as="geometry" />
        </mxCell>
        <mxCell id="FA2n_a_aYbFm5MKbmlmY-13" style="edgeStyle=orthogonalEdgeStyle;rounded=0;orthogonalLoop=1;jettySize=auto;html=1;exitX=0.5;exitY=1;exitDx=0;exitDy=0;entryX=0.5;entryY=0;entryDx=0;entryDy=0;" parent="1" source="FA2n_a_aYbFm5MKbmlmY-6" target="FA2n_a_aYbFm5MKbmlmY-10" edge="1">
          <mxGeometry relative="1" as="geometry" />
        </mxCell>
        <mxCell id="FA2n_a_aYbFm5MKbmlmY-18" style="edgeStyle=orthogonalEdgeStyle;rounded=0;orthogonalLoop=1;jettySize=auto;html=1;exitX=1;exitY=0.5;exitDx=0;exitDy=0;entryX=0.5;entryY=1;entryDx=0;entryDy=0;" parent="1" source="FA2n_a_aYbFm5MKbmlmY-6" target="FA2n_a_aYbFm5MKbmlmY-11" edge="1">
          <mxGeometry relative="1" as="geometry" />
        </mxCell>
        <mxCell id="FA2n_a_aYbFm5MKbmlmY-6" value="Flow-Rate Sensor" style="rounded=0;whiteSpace=wrap;html=1;fillColor=#dae8fc;strokeColor=#6c8ebf;" parent="1" vertex="1">
          <mxGeometry x="305" y="530" width="120" height="60" as="geometry" />
        </mxCell>
        <mxCell id="FA2n_a_aYbFm5MKbmlmY-15" style="edgeStyle=orthogonalEdgeStyle;rounded=0;orthogonalLoop=1;jettySize=auto;html=1;exitX=0.5;exitY=1;exitDx=0;exitDy=0;entryX=0.5;entryY=0;entryDx=0;entryDy=0;" parent="1" source="FA2n_a_aYbFm5MKbmlmY-10" target="FA2n_a_aYbFm5MKbmlmY-14" edge="1">
          <mxGeometry relative="1" as="geometry" />
        </mxCell>
        <mxCell id="FA2n_a_aYbFm5MKbmlmY-10" value="Plant" style="rounded=0;whiteSpace=wrap;html=1;fillColor=#d5e8d4;strokeColor=#82b366;" parent="1" vertex="1">
          <mxGeometry x="305" y="630" width="120" height="60" as="geometry" />
        </mxCell>
        <mxCell id="FA2n_a_aYbFm5MKbmlmY-11" value="Raspberry Pi" style="whiteSpace=wrap;html=1;aspect=fixed;fillColor=#f5f5f5;strokeColor=#666666;fontColor=#333333;" parent="1" vertex="1">
          <mxGeometry x="580" y="270" width="140" height="140" as="geometry" />
        </mxCell>
        <mxCell id="FA2n_a_aYbFm5MKbmlmY-16" value="Below minimum" style="edgeStyle=orthogonalEdgeStyle;rounded=0;orthogonalLoop=1;jettySize=auto;html=1;exitX=0;exitY=0.5;exitDx=0;exitDy=0;entryX=0;entryY=0.5;entryDx=0;entryDy=0;" parent="1" source="FA2n_a_aYbFm5MKbmlmY-14" edge="1">
          <mxGeometry relative="1" as="geometry">
            <Array as="points">
              <mxPoint x="250" y="760" />
              <mxPoint x="250" y="340" />
            </Array>
            <mxPoint x="305" y="340" as="targetPoint" />
          </mxGeometry>
        </mxCell>
        <mxCell id="FA2n_a_aYbFm5MKbmlmY-17" value="Above minimum" style="edgeStyle=orthogonalEdgeStyle;rounded=0;orthogonalLoop=1;jettySize=auto;html=1;exitX=0.5;exitY=1;exitDx=0;exitDy=0;entryX=0.5;entryY=0;entryDx=0;entryDy=0;" parent="1" source="FA2n_a_aYbFm5MKbmlmY-14" target="FA2n_a_aYbFm5MKbmlmY-1" edge="1">
          <mxGeometry relative="1" as="geometry">
            <Array as="points">
              <mxPoint x="365" y="810" />
              <mxPoint x="190" y="810" />
              <mxPoint x="190" y="80" />
              <mxPoint x="365" y="80" />
            </Array>
          </mxGeometry>
        </mxCell>
        <mxCell id="FA2n_a_aYbFm5MKbmlmY-14" value="Freshly-watered Moisture Threshold" style="rounded=1;whiteSpace=wrap;html=1;fillColor=#fff2cc;strokeColor=#d6b656;" parent="1" vertex="1">
          <mxGeometry x="305" y="730" width="120" height="60" as="geometry" />
        </mxCell>
        <mxCell id="W545hihCkayNRHufPKCK-1" style="edgeStyle=orthogonalEdgeStyle;rounded=0;orthogonalLoop=1;jettySize=auto;html=1;exitX=0.5;exitY=1;exitDx=0;exitDy=0;" parent="1" source="XKJcPLNsvloLNNbEv6GF-1" target="XKJcPLNsvloLNNbEv6GF-1" edge="1">
          <mxGeometry relative="1" as="geometry" />
        </mxCell>
        <mxCell id="W545hihCkayNRHufPKCK-4" value="Empty Resevoir" style="edgeStyle=orthogonalEdgeStyle;rounded=0;orthogonalLoop=1;jettySize=auto;html=1;exitX=1;exitY=0.5;exitDx=0;exitDy=0;entryX=0.5;entryY=0;entryDx=0;entryDy=0;" parent="1" source="W545hihCkayNRHufPKCK-2" target="W545hihCkayNRHufPKCK-5" edge="1">
          <mxGeometry x="0.0968" y="-10" relative="1" as="geometry">
            <mxPoint x="820" y="440" as="targetPoint" />
            <Array as="points">
              <mxPoint x="510" y="340" />
            </Array>
            <mxPoint x="10" y="-10" as="offset" />
          </mxGeometry>
        </mxCell>
        <mxCell id="W545hihCkayNRHufPKCK-6" style="edgeStyle=orthogonalEdgeStyle;rounded=0;orthogonalLoop=1;jettySize=auto;html=1;entryX=0;entryY=0.5;entryDx=0;entryDy=0;" parent="1" target="FA2n_a_aYbFm5MKbmlmY-11" edge="1">
          <mxGeometry relative="1" as="geometry">
            <mxPoint x="510" y="340" as="sourcePoint" />
            <mxPoint x="820" y="340" as="targetPoint" />
            <Array as="points">
              <mxPoint x="560" y="340" />
              <mxPoint x="560" y="340" />
            </Array>
          </mxGeometry>
        </mxCell>
        <mxCell id="W545hihCkayNRHufPKCK-2" value="Ultrasonic Water-level Sensor" style="rounded=0;whiteSpace=wrap;html=1;fillColor=#dae8fc;strokeColor=#6c8ebf;" parent="1" vertex="1">
          <mxGeometry x="305" y="310" width="120" height="60" as="geometry" />
        </mxCell>
        <mxCell id="W545hihCkayNRHufPKCK-3" value="Filled Resevoir" style="edgeStyle=orthogonalEdgeStyle;rounded=0;orthogonalLoop=1;jettySize=auto;html=1;exitX=0.5;exitY=1;exitDx=0;exitDy=0;entryX=0.5;entryY=0;entryDx=0;entryDy=0;" parent="1" source="W545hihCkayNRHufPKCK-2" target="2c7Lgy-bWxknTEZlU_3j-1" edge="1">
          <mxGeometry relative="1" as="geometry">
            <mxPoint x="375" y="380" as="sourcePoint" />
            <mxPoint x="365" y="400" as="targetPoint" />
          </mxGeometry>
        </mxCell>
        <mxCell id="W545hihCkayNRHufPKCK-5" value="Notify hoo-man" style="rounded=1;whiteSpace=wrap;html=1;fillColor=#e1d5e7;strokeColor=#9673a6;" parent="1" vertex="1">
          <mxGeometry x="450" y="410" width="120" height="60" as="geometry" />
        </mxCell>
        <mxCell id="2c7Lgy-bWxknTEZlU_3j-1" value="Water Pump" style="rounded=1;whiteSpace=wrap;html=1;fillColor=#dae8fc;strokeColor=#6c8ebf;" parent="1" vertex="1">
          <mxGeometry x="305" y="420" width="120" height="60" as="geometry" />
        </mxCell>
        <mxCell id="2c7Lgy-bWxknTEZlU_3j-3" style="edgeStyle=orthogonalEdgeStyle;rounded=0;orthogonalLoop=1;jettySize=auto;html=1;exitX=0.5;exitY=1;exitDx=0;exitDy=0;entryX=0.5;entryY=0;entryDx=0;entryDy=0;" parent="1" source="2c7Lgy-bWxknTEZlU_3j-1" target="FA2n_a_aYbFm5MKbmlmY-6" edge="1">
          <mxGeometry relative="1" as="geometry">
            <mxPoint x="375" y="600" as="sourcePoint" />
            <mxPoint x="375" y="640" as="targetPoint" />
          </mxGeometry>
        </mxCell>
      </root>
    </mxGraphModel>
  </diagram>
  <diagram id="dY4nDivjx_pBf8CRW6nb" name="Schematic">
    <mxGraphModel dx="582" dy="989" grid="1" gridSize="10" guides="1" tooltips="1" connect="1" arrows="1" fold="1" page="1" pageScale="1" pageWidth="850" pageHeight="1100" math="0" shadow="0">
      <root>
        <mxCell id="sBMSLso9CXGlW02cKWW2-0" />
        <mxCell id="sBMSLso9CXGlW02cKWW2-1" parent="sBMSLso9CXGlW02cKWW2-0" />
        <mxCell id="45pNUWZIngzlY9Y-G8Zd-0" value="Simplified Schematic &amp;amp; Block Diagram" style="rounded=0;whiteSpace=wrap;html=1;verticalAlign=top;fontSize=16;" parent="sBMSLso9CXGlW02cKWW2-1" vertex="1">
          <mxGeometry x="950" y="40" width="1040" height="780" as="geometry" />
        </mxCell>
        <mxCell id="45pNUWZIngzlY9Y-G8Zd-2" style="edgeStyle=orthogonalEdgeStyle;rounded=0;orthogonalLoop=1;jettySize=auto;html=1;exitX=0.5;exitY=0;exitDx=0;exitDy=0;entryX=0;entryY=0.25;entryDx=0;entryDy=0;startArrow=none;startFill=0;endArrow=none;endFill=0;" parent="sBMSLso9CXGlW02cKWW2-1" source="45pNUWZIngzlY9Y-G8Zd-26" target="45pNUWZIngzlY9Y-G8Zd-18" edge="1">
          <mxGeometry relative="1" as="geometry" />
        </mxCell>
        <mxCell id="45pNUWZIngzlY9Y-G8Zd-3" style="edgeStyle=orthogonalEdgeStyle;rounded=0;orthogonalLoop=1;jettySize=auto;html=1;exitX=1;exitY=0.5;exitDx=0;exitDy=0;entryX=0.7;entryY=0;entryDx=0;entryDy=0;entryPerimeter=0;startArrow=none;startFill=0;endArrow=none;endFill=0;" parent="sBMSLso9CXGlW02cKWW2-1" source="45pNUWZIngzlY9Y-G8Zd-27" target="45pNUWZIngzlY9Y-G8Zd-15" edge="1">
          <mxGeometry relative="1" as="geometry">
            <Array as="points">
              <mxPoint x="1248" y="590" />
            </Array>
          </mxGeometry>
        </mxCell>
        <mxCell id="45pNUWZIngzlY9Y-G8Zd-4" value="&lt;p style=&quot;margin-top: 0pt ; margin-bottom: 0pt ; margin-left: 0in ; direction: ltr ; unicode-bidi: embed ; word-break: normal&quot;&gt;Submersible 3V DC Water Pump&lt;/p&gt;&lt;p style=&quot;margin-top: 0pt ; margin-bottom: 0pt ; margin-left: 0in ; direction: ltr ; unicode-bidi: embed ; word-break: normal&quot;&gt;(Vertical Type)&lt;/p&gt;" style="whiteSpace=wrap;html=1;aspect=fixed;fillColor=#dae8fc;strokeColor=#6c8ebf;" parent="sBMSLso9CXGlW02cKWW2-1" vertex="1">
          <mxGeometry x="1010" y="520" width="140" height="140" as="geometry" />
        </mxCell>
        <mxCell id="45pNUWZIngzlY9Y-G8Zd-5" value="&lt;span&gt;Raspberry Pi 3 b+&lt;/span&gt;" style="rounded=0;whiteSpace=wrap;html=1;fillColor=#f5f5f5;strokeColor=#666666;fontColor=#333333;" parent="sBMSLso9CXGlW02cKWW2-1" vertex="1">
          <mxGeometry x="1410" y="90" width="160" height="700" as="geometry" />
        </mxCell>
        <mxCell id="45pNUWZIngzlY9Y-G8Zd-7" style="edgeStyle=orthogonalEdgeStyle;rounded=0;orthogonalLoop=1;jettySize=auto;html=1;exitX=1;exitY=0.5;exitDx=0;exitDy=0;entryX=0;entryY=0.5;entryDx=0;entryDy=0;startArrow=none;startFill=1;endArrow=none;endFill=0;" parent="sBMSLso9CXGlW02cKWW2-1" source="45pNUWZIngzlY9Y-G8Zd-28" target="45pNUWZIngzlY9Y-G8Zd-11" edge="1">
          <mxGeometry relative="1" as="geometry" />
        </mxCell>
        <mxCell id="45pNUWZIngzlY9Y-G8Zd-8" style="edgeStyle=orthogonalEdgeStyle;rounded=0;orthogonalLoop=1;jettySize=auto;html=1;exitX=1;exitY=0.5;exitDx=0;exitDy=0;entryX=0;entryY=0.5;entryDx=0;entryDy=0;startArrow=none;startFill=1;endArrow=none;endFill=0;" parent="sBMSLso9CXGlW02cKWW2-1" source="45pNUWZIngzlY9Y-G8Zd-29" target="45pNUWZIngzlY9Y-G8Zd-12" edge="1">
          <mxGeometry relative="1" as="geometry" />
        </mxCell>
        <mxCell id="45pNUWZIngzlY9Y-G8Zd-9" style="edgeStyle=orthogonalEdgeStyle;rounded=0;orthogonalLoop=1;jettySize=auto;html=1;exitX=1;exitY=0.5;exitDx=0;exitDy=0;entryX=0;entryY=0.5;entryDx=0;entryDy=0;endArrow=none;endFill=0;startArrow=none;startFill=1;" parent="sBMSLso9CXGlW02cKWW2-1" source="45pNUWZIngzlY9Y-G8Zd-30" target="45pNUWZIngzlY9Y-G8Zd-13" edge="1">
          <mxGeometry relative="1" as="geometry" />
        </mxCell>
        <mxCell id="45pNUWZIngzlY9Y-G8Zd-10" value="&lt;p style=&quot;margin-top: 0pt ; margin-bottom: 0pt ; margin-left: 0in ; direction: ltr ; unicode-bidi: embed ; word-break: normal&quot;&gt;Adafruit STEMMA Soil Sensor (I2C Capacitive Moisture Sensor)&lt;/p&gt;" style="whiteSpace=wrap;html=1;aspect=fixed;fillColor=#d5e8d4;strokeColor=#82b366;" parent="sBMSLso9CXGlW02cKWW2-1" vertex="1">
          <mxGeometry x="1030" y="110" width="140" height="140" as="geometry" />
        </mxCell>
        <mxCell id="45pNUWZIngzlY9Y-G8Zd-11" value="&lt;span&gt;SCL&lt;/span&gt;" style="rounded=0;whiteSpace=wrap;html=1;fillColor=#fff2cc;strokeColor=#d6b656;gradientColor=#ffd966;" parent="sBMSLso9CXGlW02cKWW2-1" vertex="1">
          <mxGeometry x="1370" y="117" width="40" height="30" as="geometry" />
        </mxCell>
        <mxCell id="45pNUWZIngzlY9Y-G8Zd-12" value="&lt;span&gt;SDA&lt;/span&gt;" style="rounded=0;whiteSpace=wrap;html=1;fillColor=#fff2cc;strokeColor=#d6b656;gradientColor=#ffd966;" parent="sBMSLso9CXGlW02cKWW2-1" vertex="1">
          <mxGeometry x="1370" y="150" width="40" height="30" as="geometry" />
        </mxCell>
        <mxCell id="45pNUWZIngzlY9Y-G8Zd-13" value="&lt;span&gt;VIN&lt;/span&gt;" style="rounded=0;whiteSpace=wrap;html=1;fillColor=#fff2cc;strokeColor=#d6b656;gradientColor=#ffd966;" parent="sBMSLso9CXGlW02cKWW2-1" vertex="1">
          <mxGeometry x="1370" y="183" width="40" height="30" as="geometry" />
        </mxCell>
        <mxCell id="45pNUWZIngzlY9Y-G8Zd-14" style="edgeStyle=orthogonalEdgeStyle;rounded=0;orthogonalLoop=1;jettySize=auto;html=1;exitX=0.7;exitY=1;exitDx=0;exitDy=0;exitPerimeter=0;entryX=0;entryY=0.75;entryDx=0;entryDy=0;startArrow=none;startFill=0;endArrow=none;endFill=0;" parent="sBMSLso9CXGlW02cKWW2-1" source="45pNUWZIngzlY9Y-G8Zd-15" target="45pNUWZIngzlY9Y-G8Zd-18" edge="1">
          <mxGeometry relative="1" as="geometry" />
        </mxCell>
        <mxCell id="45pNUWZIngzlY9Y-G8Zd-15" value="" style="verticalLabelPosition=bottom;shadow=0;dashed=0;align=center;html=1;verticalAlign=top;shape=mxgraph.electrical.transistors.npn_transistor_1;rotation=-180;horizontal=1;" parent="sBMSLso9CXGlW02cKWW2-1" vertex="1">
          <mxGeometry x="1230" y="510" width="57" height="60" as="geometry" />
        </mxCell>
        <mxCell id="45pNUWZIngzlY9Y-G8Zd-16" value="R&lt;sub&gt;B&lt;/sub&gt;" style="pointerEvents=1;verticalLabelPosition=bottom;shadow=0;dashed=0;align=center;html=1;verticalAlign=top;shape=mxgraph.electrical.resistors.resistor_2;horizontal=1;" parent="sBMSLso9CXGlW02cKWW2-1" vertex="1">
          <mxGeometry x="1277" y="530" width="100" height="20" as="geometry" />
        </mxCell>
        <mxCell id="45pNUWZIngzlY9Y-G8Zd-17" value="GPIO" style="rounded=0;whiteSpace=wrap;html=1;fillColor=#fff2cc;strokeColor=#d6b656;gradientColor=#ffd966;" parent="sBMSLso9CXGlW02cKWW2-1" vertex="1">
          <mxGeometry x="1370" y="525" width="40" height="30" as="geometry" />
        </mxCell>
        <mxCell id="45pNUWZIngzlY9Y-G8Zd-18" value="&lt;span&gt;GND&lt;/span&gt;" style="rounded=0;whiteSpace=wrap;html=1;fillColor=#fff2cc;strokeColor=#d6b656;gradientColor=#ffd966;" parent="sBMSLso9CXGlW02cKWW2-1" vertex="1">
          <mxGeometry x="1370" y="410" width="40" height="30" as="geometry" />
        </mxCell>
        <mxCell id="45pNUWZIngzlY9Y-G8Zd-19" value="&lt;span&gt;3V3&lt;/span&gt;" style="rounded=0;whiteSpace=wrap;html=1;fillColor=#fff2cc;strokeColor=#d6b656;gradientColor=#ffd966;" parent="sBMSLso9CXGlW02cKWW2-1" vertex="1">
          <mxGeometry x="1370" y="610" width="40" height="30" as="geometry" />
        </mxCell>
        <mxCell id="45pNUWZIngzlY9Y-G8Zd-20" style="edgeStyle=orthogonalEdgeStyle;rounded=0;orthogonalLoop=1;jettySize=auto;html=1;exitX=0;exitY=0.5;exitDx=0;exitDy=0;exitPerimeter=0;entryX=0.7;entryY=0;entryDx=0;entryDy=0;entryPerimeter=0;startArrow=none;startFill=0;endArrow=none;endFill=0;" parent="sBMSLso9CXGlW02cKWW2-1" source="45pNUWZIngzlY9Y-G8Zd-21" target="45pNUWZIngzlY9Y-G8Zd-15" edge="1">
          <mxGeometry relative="1" as="geometry" />
        </mxCell>
        <mxCell id="45pNUWZIngzlY9Y-G8Zd-21" value="R&lt;sub&gt;C&lt;/sub&gt;" style="pointerEvents=1;verticalLabelPosition=bottom;shadow=0;dashed=0;align=center;html=1;verticalAlign=top;shape=mxgraph.electrical.resistors.resistor_2;" parent="sBMSLso9CXGlW02cKWW2-1" vertex="1">
          <mxGeometry x="1270" y="615" width="50" height="20" as="geometry" />
        </mxCell>
        <mxCell id="45pNUWZIngzlY9Y-G8Zd-22" value="V&lt;sub&gt;Out&lt;br&gt;&lt;/sub&gt;(3V0)" style="text;html=1;strokeColor=none;fillColor=none;align=center;verticalAlign=middle;whiteSpace=wrap;rounded=0;" parent="sBMSLso9CXGlW02cKWW2-1" vertex="1">
          <mxGeometry x="1200" y="595" width="40" height="20" as="geometry" />
        </mxCell>
        <mxCell id="45pNUWZIngzlY9Y-G8Zd-23" value="R&lt;span style=&quot;font-size: 10px&quot;&gt;1&lt;/span&gt;" style="pointerEvents=1;verticalLabelPosition=bottom;shadow=0;dashed=0;align=center;html=1;verticalAlign=top;shape=mxgraph.electrical.resistors.resistor_2;" parent="sBMSLso9CXGlW02cKWW2-1" vertex="1">
          <mxGeometry x="1320" y="615" width="50" height="20" as="geometry" />
        </mxCell>
        <mxCell id="45pNUWZIngzlY9Y-G8Zd-24" style="edgeStyle=orthogonalEdgeStyle;rounded=0;orthogonalLoop=1;jettySize=auto;html=1;exitX=0.5;exitY=0;exitDx=0;exitDy=0;entryX=0;entryY=0.5;entryDx=0;entryDy=0;entryPerimeter=0;startArrow=none;startFill=0;endArrow=none;endFill=0;" parent="sBMSLso9CXGlW02cKWW2-1" source="45pNUWZIngzlY9Y-G8Zd-25" target="45pNUWZIngzlY9Y-G8Zd-23" edge="1">
          <mxGeometry relative="1" as="geometry">
            <Array as="points">
              <mxPoint x="1320" y="660" />
              <mxPoint x="1320" y="660" />
            </Array>
          </mxGeometry>
        </mxCell>
        <mxCell id="45pNUWZIngzlY9Y-G8Zd-25" value="V&lt;sub&gt;CC&lt;br&gt;&lt;/sub&gt;(3V0)" style="text;html=1;strokeColor=none;fillColor=none;align=center;verticalAlign=middle;whiteSpace=wrap;rounded=0;" parent="sBMSLso9CXGlW02cKWW2-1" vertex="1">
          <mxGeometry x="1300" y="680" width="40" height="20" as="geometry" />
        </mxCell>
        <mxCell id="45pNUWZIngzlY9Y-G8Zd-26" value="&lt;span&gt;GND&lt;/span&gt;" style="rounded=0;whiteSpace=wrap;html=1;fillColor=#fff2cc;strokeColor=#d6b656;gradientColor=#ffd966;" parent="sBMSLso9CXGlW02cKWW2-1" vertex="1">
          <mxGeometry x="1060" y="490" width="40" height="30" as="geometry" />
        </mxCell>
        <mxCell id="45pNUWZIngzlY9Y-G8Zd-27" value="V&lt;sub&gt;In&lt;/sub&gt;" style="rounded=0;whiteSpace=wrap;html=1;fillColor=#fff2cc;strokeColor=#d6b656;gradientColor=#ffd966;" parent="sBMSLso9CXGlW02cKWW2-1" vertex="1">
          <mxGeometry x="1150" y="575" width="40" height="30" as="geometry" />
        </mxCell>
        <mxCell id="45pNUWZIngzlY9Y-G8Zd-28" value="&lt;span&gt;SCL&lt;/span&gt;" style="rounded=0;whiteSpace=wrap;html=1;fillColor=#fff2cc;strokeColor=#d6b656;gradientColor=#ffd966;" parent="sBMSLso9CXGlW02cKWW2-1" vertex="1">
          <mxGeometry x="1170" y="117" width="40" height="30" as="geometry" />
        </mxCell>
        <mxCell id="45pNUWZIngzlY9Y-G8Zd-29" value="&lt;span&gt;SCL&lt;/span&gt;" style="rounded=0;whiteSpace=wrap;html=1;fillColor=#fff2cc;strokeColor=#d6b656;gradientColor=#ffd966;" parent="sBMSLso9CXGlW02cKWW2-1" vertex="1">
          <mxGeometry x="1170" y="150" width="40" height="30" as="geometry" />
        </mxCell>
        <mxCell id="45pNUWZIngzlY9Y-G8Zd-30" value="VIN" style="rounded=0;whiteSpace=wrap;html=1;fillColor=#fff2cc;strokeColor=#d6b656;gradientColor=#ffd966;" parent="sBMSLso9CXGlW02cKWW2-1" vertex="1">
          <mxGeometry x="1170" y="183" width="40" height="30" as="geometry" />
        </mxCell>
        <mxCell id="45pNUWZIngzlY9Y-G8Zd-31" value="&lt;span&gt;GND&lt;/span&gt;" style="rounded=0;whiteSpace=wrap;html=1;fillColor=#fff2cc;strokeColor=#d6b656;gradientColor=#ffd966;" parent="sBMSLso9CXGlW02cKWW2-1" vertex="1">
          <mxGeometry x="1370" y="216" width="40" height="30" as="geometry" />
        </mxCell>
        <mxCell id="45pNUWZIngzlY9Y-G8Zd-32" style="edgeStyle=orthogonalEdgeStyle;rounded=0;orthogonalLoop=1;jettySize=auto;html=1;exitX=1;exitY=0.5;exitDx=0;exitDy=0;entryX=0;entryY=0.5;entryDx=0;entryDy=0;startArrow=none;startFill=0;endArrow=none;endFill=0;" parent="sBMSLso9CXGlW02cKWW2-1" source="45pNUWZIngzlY9Y-G8Zd-33" target="45pNUWZIngzlY9Y-G8Zd-31" edge="1">
          <mxGeometry relative="1" as="geometry" />
        </mxCell>
        <mxCell id="45pNUWZIngzlY9Y-G8Zd-33" value="&lt;span&gt;GND&lt;/span&gt;" style="rounded=0;whiteSpace=wrap;html=1;fillColor=#fff2cc;strokeColor=#d6b656;gradientColor=#ffd966;" parent="sBMSLso9CXGlW02cKWW2-1" vertex="1">
          <mxGeometry x="1170" y="216" width="40" height="30" as="geometry" />
        </mxCell>
        <mxCell id="D2qpI51PtQ7cwaq9xspd-0" value="Power Transitor (Switch)" style="text;html=1;strokeColor=none;fillColor=none;align=center;verticalAlign=middle;whiteSpace=wrap;rounded=0;" parent="sBMSLso9CXGlW02cKWW2-1" vertex="1">
          <mxGeometry x="1247.5" y="490" width="95" height="20" as="geometry" />
        </mxCell>
        <mxCell id="un6VpmzVhLpmhh5ma5Tp-1" value="&lt;p style=&quot;margin-top: 0pt ; margin-bottom: 0pt ; margin-left: 0in ; direction: ltr ; unicode-bidi: embed ; word-break: normal&quot;&gt;Ultrasonic Sensor&lt;/p&gt;" style="whiteSpace=wrap;html=1;aspect=fixed;fillColor=#dae8fc;strokeColor=#6c8ebf;" parent="sBMSLso9CXGlW02cKWW2-1" vertex="1">
          <mxGeometry x="1810" y="110" width="140" height="140" as="geometry" />
        </mxCell>
        <mxCell id="kWyCmmj9SNvnXTcqk3xD-12" style="edgeStyle=orthogonalEdgeStyle;rounded=0;orthogonalLoop=1;jettySize=auto;html=1;exitX=1;exitY=0.5;exitDx=0;exitDy=0;entryX=0;entryY=0.5;entryDx=0;entryDy=0;startArrow=none;startFill=1;endArrow=none;endFill=0;" edge="1" parent="sBMSLso9CXGlW02cKWW2-1" source="kWyCmmj9SNvnXTcqk3xD-18" target="kWyCmmj9SNvnXTcqk3xD-15">
          <mxGeometry relative="1" as="geometry" />
        </mxCell>
        <mxCell id="kWyCmmj9SNvnXTcqk3xD-13" style="edgeStyle=orthogonalEdgeStyle;rounded=0;orthogonalLoop=1;jettySize=auto;html=1;exitX=1;exitY=0.5;exitDx=0;exitDy=0;entryX=0;entryY=0.5;entryDx=0;entryDy=0;startArrow=none;startFill=1;endArrow=none;endFill=0;" edge="1" parent="sBMSLso9CXGlW02cKWW2-1" source="kWyCmmj9SNvnXTcqk3xD-19" target="kWyCmmj9SNvnXTcqk3xD-16">
          <mxGeometry relative="1" as="geometry" />
        </mxCell>
        <mxCell id="kWyCmmj9SNvnXTcqk3xD-14" style="edgeStyle=orthogonalEdgeStyle;rounded=0;orthogonalLoop=1;jettySize=auto;html=1;exitX=1;exitY=0.5;exitDx=0;exitDy=0;entryX=0;entryY=0.5;entryDx=0;entryDy=0;endArrow=none;endFill=0;startArrow=none;startFill=1;" edge="1" parent="sBMSLso9CXGlW02cKWW2-1" source="kWyCmmj9SNvnXTcqk3xD-20" target="kWyCmmj9SNvnXTcqk3xD-17">
          <mxGeometry relative="1" as="geometry" />
        </mxCell>
        <mxCell id="kWyCmmj9SNvnXTcqk3xD-15" value="V&lt;sub style=&quot;font-size: 9px;&quot;&gt;CC&lt;br style=&quot;font-size: 9px;&quot;&gt;&lt;/sub&gt;(3V0)&lt;sub style=&quot;font-size: 9px;&quot;&gt;&lt;br style=&quot;font-size: 9px;&quot;&gt;&lt;/sub&gt;" style="rounded=0;whiteSpace=wrap;html=1;fillColor=#fff2cc;strokeColor=#d6b656;gradientColor=#ffd966;fontSize=9;" vertex="1" parent="sBMSLso9CXGlW02cKWW2-1">
          <mxGeometry x="1770" y="115.5" width="40" height="30" as="geometry" />
        </mxCell>
        <mxCell id="kWyCmmj9SNvnXTcqk3xD-16" value="Trig" style="rounded=0;whiteSpace=wrap;html=1;fillColor=#fff2cc;strokeColor=#d6b656;gradientColor=#ffd966;" vertex="1" parent="sBMSLso9CXGlW02cKWW2-1">
          <mxGeometry x="1770" y="148.5" width="40" height="30" as="geometry" />
        </mxCell>
        <mxCell id="kWyCmmj9SNvnXTcqk3xD-17" value="Echo" style="rounded=0;whiteSpace=wrap;html=1;fillColor=#fff2cc;strokeColor=#d6b656;gradientColor=#ffd966;" vertex="1" parent="sBMSLso9CXGlW02cKWW2-1">
          <mxGeometry x="1770" y="181.5" width="40" height="30" as="geometry" />
        </mxCell>
        <mxCell id="kWyCmmj9SNvnXTcqk3xD-18" value="V&lt;sub style=&quot;font-size: 9px;&quot;&gt;CC&lt;br style=&quot;font-size: 9px;&quot;&gt;&lt;/sub&gt;(3V0)&lt;sub style=&quot;font-size: 9px;&quot;&gt;&lt;br style=&quot;font-size: 9px;&quot;&gt;&lt;/sub&gt;" style="rounded=0;whiteSpace=wrap;html=1;fillColor=#fff2cc;strokeColor=#d6b656;gradientColor=#ffd966;fontSize=9;" vertex="1" parent="sBMSLso9CXGlW02cKWW2-1">
          <mxGeometry x="1570" y="115.5" width="40" height="30" as="geometry" />
        </mxCell>
        <mxCell id="kWyCmmj9SNvnXTcqk3xD-19" value="&lt;span&gt;Trig&lt;/span&gt;" style="rounded=0;whiteSpace=wrap;html=1;fillColor=#fff2cc;strokeColor=#d6b656;gradientColor=#ffd966;" vertex="1" parent="sBMSLso9CXGlW02cKWW2-1">
          <mxGeometry x="1570" y="148.5" width="40" height="30" as="geometry" />
        </mxCell>
        <mxCell id="kWyCmmj9SNvnXTcqk3xD-20" value="&lt;span&gt;Echo&lt;/span&gt;" style="rounded=0;whiteSpace=wrap;html=1;fillColor=#fff2cc;strokeColor=#d6b656;gradientColor=#ffd966;" vertex="1" parent="sBMSLso9CXGlW02cKWW2-1">
          <mxGeometry x="1570" y="181.5" width="40" height="30" as="geometry" />
        </mxCell>
        <mxCell id="kWyCmmj9SNvnXTcqk3xD-21" value="&lt;span&gt;GND&lt;/span&gt;" style="rounded=0;whiteSpace=wrap;html=1;fillColor=#fff2cc;strokeColor=#d6b656;gradientColor=#ffd966;" vertex="1" parent="sBMSLso9CXGlW02cKWW2-1">
          <mxGeometry x="1770" y="214.5" width="40" height="30" as="geometry" />
        </mxCell>
        <mxCell id="kWyCmmj9SNvnXTcqk3xD-22" style="edgeStyle=orthogonalEdgeStyle;rounded=0;orthogonalLoop=1;jettySize=auto;html=1;exitX=1;exitY=0.5;exitDx=0;exitDy=0;entryX=0;entryY=0.5;entryDx=0;entryDy=0;startArrow=none;startFill=0;endArrow=none;endFill=0;" edge="1" parent="sBMSLso9CXGlW02cKWW2-1" source="kWyCmmj9SNvnXTcqk3xD-23" target="kWyCmmj9SNvnXTcqk3xD-21">
          <mxGeometry relative="1" as="geometry" />
        </mxCell>
        <mxCell id="kWyCmmj9SNvnXTcqk3xD-23" value="&lt;span&gt;GND&lt;/span&gt;" style="rounded=0;whiteSpace=wrap;html=1;fillColor=#fff2cc;strokeColor=#d6b656;gradientColor=#ffd966;" vertex="1" parent="sBMSLso9CXGlW02cKWW2-1">
          <mxGeometry x="1570" y="214.5" width="40" height="30" as="geometry" />
        </mxCell>
      </root>
    </mxGraphModel>
  </diagram>
  <diagram id="VuOmJ-6H_b82W99HpSXe" name="Diagram">
    <mxGraphModel dx="1193" dy="824" grid="1" gridSize="10" guides="1" tooltips="1" connect="1" arrows="1" fold="1" page="1" pageScale="1" pageWidth="850" pageHeight="1100" math="0" shadow="0">
      <root>
        <mxCell id="IYEGOVm7IGTqn1YF7ZS0-0" />
        <mxCell id="IYEGOVm7IGTqn1YF7ZS0-1" parent="IYEGOVm7IGTqn1YF7ZS0-0" />
        <mxCell id="IYEGOVm7IGTqn1YF7ZS0-2" value="" style="rounded=0;whiteSpace=wrap;html=1;" parent="IYEGOVm7IGTqn1YF7ZS0-1" vertex="1">
          <mxGeometry x="280" y="230" width="10" height="150" as="geometry" />
        </mxCell>
        <mxCell id="IYEGOVm7IGTqn1YF7ZS0-3" value="" style="shape=tape;whiteSpace=wrap;html=1;fillColor=#dae8fc;strokeColor=#6c8ebf;" parent="IYEGOVm7IGTqn1YF7ZS0-1" vertex="1">
          <mxGeometry x="200" y="360" width="350" height="40" as="geometry" />
        </mxCell>
        <mxCell id="IYEGOVm7IGTqn1YF7ZS0-4" value="" style="ellipse;shape=cloud;whiteSpace=wrap;html=1;rotation=90;fillColor=#d5e8d4;strokeColor=#82b366;" parent="IYEGOVm7IGTqn1YF7ZS0-1" vertex="1">
          <mxGeometry x="315" y="250" width="120" height="80" as="geometry" />
        </mxCell>
        <mxCell id="IYEGOVm7IGTqn1YF7ZS0-5" value="" style="rounded=0;whiteSpace=wrap;html=1;fillColor=#ffe6cc;strokeColor=#d79b00;" parent="IYEGOVm7IGTqn1YF7ZS0-1" vertex="1">
          <mxGeometry x="410" y="350" width="10" height="60" as="geometry" />
        </mxCell>
        <mxCell id="IYEGOVm7IGTqn1YF7ZS0-6" value="" style="rounded=0;whiteSpace=wrap;html=1;fillColor=#ffe6cc;strokeColor=#d79b00;" parent="IYEGOVm7IGTqn1YF7ZS0-1" vertex="1">
          <mxGeometry x="330" y="350" width="10" height="50" as="geometry" />
        </mxCell>
        <mxCell id="IYEGOVm7IGTqn1YF7ZS0-7" style="edgeStyle=orthogonalEdgeStyle;rounded=0;orthogonalLoop=1;jettySize=auto;html=1;exitX=0.5;exitY=1;exitDx=0;exitDy=0;entryX=0;entryY=0.5;entryDx=0;entryDy=0;endArrow=none;endFill=0;" parent="IYEGOVm7IGTqn1YF7ZS0-1" source="IYEGOVm7IGTqn1YF7ZS0-22" target="IYEGOVm7IGTqn1YF7ZS0-9" edge="1">
          <mxGeometry relative="1" as="geometry">
            <Array as="points">
              <mxPoint x="220" y="470" />
              <mxPoint x="650" y="470" />
              <mxPoint x="650" y="450" />
            </Array>
          </mxGeometry>
        </mxCell>
        <mxCell id="IYEGOVm7IGTqn1YF7ZS0-8" value="" style="rounded=1;whiteSpace=wrap;html=1;fillColor=#f5f5f5;strokeColor=#666666;fontColor=#333333;" parent="IYEGOVm7IGTqn1YF7ZS0-1" vertex="1">
          <mxGeometry x="190" y="380" width="370" height="80" as="geometry" />
        </mxCell>
        <mxCell id="IYEGOVm7IGTqn1YF7ZS0-9" value="Pi" style="rounded=0;whiteSpace=wrap;html=1;fillColor=#dae8fc;strokeColor=#6c8ebf;" parent="IYEGOVm7IGTqn1YF7ZS0-1" vertex="1">
          <mxGeometry x="690" y="420" width="50" height="60" as="geometry" />
        </mxCell>
        <mxCell id="IYEGOVm7IGTqn1YF7ZS0-10" value="" style="shape=trapezoid;perimeter=trapezoidPerimeter;whiteSpace=wrap;html=1;fixedSize=1;fillColor=#ffe6cc;strokeColor=#d79b00;" parent="IYEGOVm7IGTqn1YF7ZS0-1" vertex="1">
          <mxGeometry x="315" y="310" width="120" height="60" as="geometry" />
        </mxCell>
        <mxCell id="IYEGOVm7IGTqn1YF7ZS0-11" value="" style="rounded=0;whiteSpace=wrap;html=1;rotation=90;" parent="IYEGOVm7IGTqn1YF7ZS0-1" vertex="1">
          <mxGeometry x="315" y="185" width="10" height="80" as="geometry" />
        </mxCell>
        <mxCell id="IYEGOVm7IGTqn1YF7ZS0-12" value="" style="ellipse;whiteSpace=wrap;html=1;fillColor=#dae8fc;strokeColor=#6c8ebf;" parent="IYEGOVm7IGTqn1YF7ZS0-1" vertex="1">
          <mxGeometry x="340" y="240" width="10" height="20" as="geometry" />
        </mxCell>
        <mxCell id="IYEGOVm7IGTqn1YF7ZS0-13" value="" style="ellipse;whiteSpace=wrap;html=1;fillColor=#dae8fc;strokeColor=#6c8ebf;" parent="IYEGOVm7IGTqn1YF7ZS0-1" vertex="1">
          <mxGeometry x="360" y="230" width="10" height="20" as="geometry" />
        </mxCell>
        <mxCell id="IYEGOVm7IGTqn1YF7ZS0-14" value="" style="ellipse;whiteSpace=wrap;html=1;fillColor=#dae8fc;strokeColor=#6c8ebf;" parent="IYEGOVm7IGTqn1YF7ZS0-1" vertex="1">
          <mxGeometry x="360" y="270" width="10" height="20" as="geometry" />
        </mxCell>
        <mxCell id="IYEGOVm7IGTqn1YF7ZS0-15" value="" style="ellipse;whiteSpace=wrap;html=1;fillColor=#dae8fc;strokeColor=#6c8ebf;" parent="IYEGOVm7IGTqn1YF7ZS0-1" vertex="1">
          <mxGeometry x="340" y="280" width="10" height="20" as="geometry" />
        </mxCell>
        <mxCell id="IYEGOVm7IGTqn1YF7ZS0-16" value="" style="ellipse;whiteSpace=wrap;html=1;fillColor=#000000;" parent="IYEGOVm7IGTqn1YF7ZS0-1" vertex="1">
          <mxGeometry x="350" y="220" width="20" height="10" as="geometry" />
        </mxCell>
        <mxCell id="IYEGOVm7IGTqn1YF7ZS0-17" value="" style="rounded=0;whiteSpace=wrap;html=1;opacity=30;" parent="IYEGOVm7IGTqn1YF7ZS0-1" vertex="1">
          <mxGeometry x="495" y="340" width="10" height="120" as="geometry" />
        </mxCell>
        <mxCell id="IYEGOVm7IGTqn1YF7ZS0-18" value="" style="ellipse;whiteSpace=wrap;html=1;strokeColor=#d6b656;fillColor=#fff2cc;" parent="IYEGOVm7IGTqn1YF7ZS0-1" vertex="1">
          <mxGeometry x="485" y="350" width="30" height="10" as="geometry" />
        </mxCell>
        <mxCell id="IYEGOVm7IGTqn1YF7ZS0-19" value="" style="rounded=1;whiteSpace=wrap;html=1;strokeColor=#9673a6;fillColor=#e1d5e7;" parent="IYEGOVm7IGTqn1YF7ZS0-1" vertex="1">
          <mxGeometry x="505" y="340" width="10" height="20" as="geometry" />
        </mxCell>
        <mxCell id="IYEGOVm7IGTqn1YF7ZS0-20" value="" style="endArrow=none;html=1;exitX=0.5;exitY=1;exitDx=0;exitDy=0;" parent="IYEGOVm7IGTqn1YF7ZS0-1" source="IYEGOVm7IGTqn1YF7ZS0-19" target="IYEGOVm7IGTqn1YF7ZS0-3" edge="1">
          <mxGeometry width="50" height="50" relative="1" as="geometry">
            <mxPoint x="440" y="390" as="sourcePoint" />
            <mxPoint x="490" y="340" as="targetPoint" />
          </mxGeometry>
        </mxCell>
        <mxCell id="IYEGOVm7IGTqn1YF7ZS0-21" value="" style="endArrow=none;html=1;exitX=0.5;exitY=1;exitDx=0;exitDy=0;fillColor=#f8cecc;strokeColor=#b85450;" parent="IYEGOVm7IGTqn1YF7ZS0-1" source="IYEGOVm7IGTqn1YF7ZS0-19" edge="1">
          <mxGeometry width="50" height="50" relative="1" as="geometry">
            <mxPoint x="470" y="380" as="sourcePoint" />
            <mxPoint x="510" y="381" as="targetPoint" />
          </mxGeometry>
        </mxCell>
        <mxCell id="IYEGOVm7IGTqn1YF7ZS0-22" value="" style="rounded=0;whiteSpace=wrap;html=1;strokeColor=#000000;fillColor=#000000;gradientColor=none;opacity=30;" parent="IYEGOVm7IGTqn1YF7ZS0-1" vertex="1">
          <mxGeometry x="200" y="420" width="40" height="30" as="geometry" />
        </mxCell>
        <mxCell id="IYEGOVm7IGTqn1YF7ZS0-23" value="" style="rounded=0;whiteSpace=wrap;html=1;opacity=30;" parent="IYEGOVm7IGTqn1YF7ZS0-1" vertex="1">
          <mxGeometry x="280" y="380" width="10" height="60" as="geometry" />
        </mxCell>
        <mxCell id="IYEGOVm7IGTqn1YF7ZS0-24" value="" style="rounded=0;whiteSpace=wrap;html=1;rotation=90;opacity=30;" parent="IYEGOVm7IGTqn1YF7ZS0-1" vertex="1">
          <mxGeometry x="252.5" y="412.5" width="10" height="45" as="geometry" />
        </mxCell>
        <mxCell id="IYEGOVm7IGTqn1YF7ZS0-25" style="edgeStyle=orthogonalEdgeStyle;rounded=0;orthogonalLoop=1;jettySize=auto;html=1;exitX=1;exitY=0.5;exitDx=0;exitDy=0;entryX=0.5;entryY=0;entryDx=0;entryDy=0;endArrow=none;endFill=0;" parent="IYEGOVm7IGTqn1YF7ZS0-1" source="IYEGOVm7IGTqn1YF7ZS0-19" target="IYEGOVm7IGTqn1YF7ZS0-9" edge="1">
          <mxGeometry relative="1" as="geometry">
            <mxPoint x="230" y="460" as="sourcePoint" />
            <mxPoint x="699.9999999999998" y="460" as="targetPoint" />
            <Array as="points">
              <mxPoint x="715" y="350" />
            </Array>
          </mxGeometry>
        </mxCell>
        <mxCell id="IYEGOVm7IGTqn1YF7ZS0-26" style="edgeStyle=orthogonalEdgeStyle;rounded=0;orthogonalLoop=1;jettySize=auto;html=1;exitX=1;exitY=0.5;exitDx=0;exitDy=0;entryX=0;entryY=0.5;entryDx=0;entryDy=0;endArrow=classic;endFill=1;" parent="IYEGOVm7IGTqn1YF7ZS0-1" source="IYEGOVm7IGTqn1YF7ZS0-27" target="IYEGOVm7IGTqn1YF7ZS0-22" edge="1">
          <mxGeometry relative="1" as="geometry" />
        </mxCell>
        <mxCell id="IYEGOVm7IGTqn1YF7ZS0-27" value="Pump" style="text;html=1;strokeColor=none;fillColor=none;align=center;verticalAlign=middle;whiteSpace=wrap;rounded=0;opacity=30;" parent="IYEGOVm7IGTqn1YF7ZS0-1" vertex="1">
          <mxGeometry x="110" y="410" width="40" height="20" as="geometry" />
        </mxCell>
        <mxCell id="IYEGOVm7IGTqn1YF7ZS0-28" value="Floating Ultrasonic Sensor" style="text;html=1;strokeColor=none;fillColor=none;align=center;verticalAlign=middle;whiteSpace=wrap;rounded=0;opacity=30;" parent="IYEGOVm7IGTqn1YF7ZS0-1" vertex="1">
          <mxGeometry x="490" y="190" width="40" height="50" as="geometry" />
        </mxCell>
        <mxCell id="IYEGOVm7IGTqn1YF7ZS0-29" style="edgeStyle=orthogonalEdgeStyle;rounded=0;orthogonalLoop=1;jettySize=auto;html=1;exitX=0.5;exitY=1;exitDx=0;exitDy=0;endArrow=classic;endFill=1;entryX=0.5;entryY=0;entryDx=0;entryDy=0;" parent="IYEGOVm7IGTqn1YF7ZS0-1" source="IYEGOVm7IGTqn1YF7ZS0-28" target="IYEGOVm7IGTqn1YF7ZS0-19" edge="1">
          <mxGeometry relative="1" as="geometry">
            <mxPoint x="160" y="430" as="sourcePoint" />
            <mxPoint x="510" y="340" as="targetPoint" />
            <Array as="points">
              <mxPoint x="510" y="250" />
              <mxPoint x="510" y="250" />
            </Array>
          </mxGeometry>
        </mxCell>
        <mxCell id="IYEGOVm7IGTqn1YF7ZS0-30" value="Floater Guide-Rail" style="text;html=1;strokeColor=none;fillColor=none;align=center;verticalAlign=middle;whiteSpace=wrap;rounded=0;opacity=30;" parent="IYEGOVm7IGTqn1YF7ZS0-1" vertex="1">
          <mxGeometry x="420" y="210" width="40" height="50" as="geometry" />
        </mxCell>
        <mxCell id="IYEGOVm7IGTqn1YF7ZS0-31" style="edgeStyle=orthogonalEdgeStyle;rounded=0;orthogonalLoop=1;jettySize=auto;html=1;exitX=0.5;exitY=1;exitDx=0;exitDy=0;endArrow=classic;endFill=1;entryX=0.5;entryY=0;entryDx=0;entryDy=0;" parent="IYEGOVm7IGTqn1YF7ZS0-1" source="IYEGOVm7IGTqn1YF7ZS0-30" target="IYEGOVm7IGTqn1YF7ZS0-17" edge="1">
          <mxGeometry relative="1" as="geometry">
            <mxPoint x="514.9999999999998" y="250" as="sourcePoint" />
            <mxPoint x="509.9999999999998" y="360" as="targetPoint" />
            <Array as="points">
              <mxPoint x="440" y="290" />
              <mxPoint x="500" y="290" />
            </Array>
          </mxGeometry>
        </mxCell>
      </root>
    </mxGraphModel>
  </diagram>
</mxfile>
